<svg width="28" height="28" viewBox="0 0 28 28" fill="none" xmlns="http://www.w3.org/2000/svg">
<path fill-rule="evenodd" clip-rule="evenodd" d="M19.0511 5.78049C18.6712 5.70455 18.279 5.71694 17.9047 5.81669L17.9046 5.81671L8.12688 8.4238L8.12677 8.42382C7.58847 8.5673 7.11263 8.88459 6.77324 9.32637C6.43385 9.76814 6.24991 10.3096 6.25 10.8667V10.8669V11.2783C6.25 11.2783 6.25 11.2783 6.25 11.2783V14C6.25 14.4142 6.58579 14.75 7 14.75C7.41421 14.75 7.75 14.4142 7.75 14V11.2783C7.75 11.2783 7.75 11.2783 7.75 11.2783C7.75 11.2781 7.75 11.278 7.75 11.2778C7.75013 11.0054 7.8584 10.7442 8.05103 10.5515C8.24377 10.3588 8.50519 10.2505 8.77778 10.2505H21.2222C21.4948 10.2505 21.7562 10.3588 21.949 10.5515C22.1417 10.7443 22.25 11.0057 22.25 11.2783V19.2783C22.25 19.5509 22.1417 19.8123 21.949 20.005C21.7562 20.1978 21.4948 20.3061 21.2222 20.3061H14C13.5858 20.3061 13.25 20.6419 13.25 21.0561C13.25 21.4703 13.5858 21.8061 14 21.8061H21.2222C21.8926 21.8061 22.5356 21.5398 23.0096 21.0657C23.4837 20.5917 23.75 19.9487 23.75 19.2783V11.2783C23.75 10.6079 23.4837 9.96494 23.0096 9.49089C22.5356 9.01684 21.8926 8.75052 21.2222 8.75052H21.0833V8.25873V8.25852C21.0832 7.87114 20.9941 7.48897 20.8228 7.14152C20.6515 6.79406 20.4027 6.49063 20.0955 6.25464C19.7883 6.01865 19.4309 5.85642 19.0511 5.78049ZM19.5833 8.75052V8.25894V8.25873C19.5833 8.10129 19.547 7.94598 19.4774 7.80477C19.4078 7.6635 19.3066 7.54012 19.1817 7.44417C19.0568 7.34822 18.9115 7.28226 18.757 7.25139C18.6026 7.22052 18.4432 7.22554 18.291 7.26608L18.2909 7.2661L12.7237 8.75052H19.5833ZM19.0001 14.0839C18.6833 14.0839 18.3795 14.2097 18.1555 14.4337C17.9315 14.6577 17.8057 14.9615 17.8057 15.2783C17.8057 15.5951 17.9315 15.8989 18.1555 16.1229C18.3795 16.3469 18.6833 16.4728 19.0001 16.4728C19.3169 16.4728 19.6207 16.3469 19.8447 16.1229C20.0687 15.8989 20.1946 15.5951 20.1946 15.2783C20.1946 14.9615 20.0687 14.6577 19.8447 14.4337C19.6207 14.2097 19.3169 14.0839 19.0001 14.0839Z" fill="white"/>
<circle cx="7.5" cy="20.5" r="3.5" fill="#FF4949"/>
</svg>
